<?xml version="1.0"?>
<svg xmlns="http://www.w3.org/2000/svg" id="Outline" viewBox="0 0 512 512" width="512" height="512">
<path fill="#fff" d="M360,160H168a8,8,0,0,0,0,16H360a8,8,0,0,0,0-16Z"/>
<path fill="#fff" d="M248,208H88a8,8,0,0,0,0,16H248a8,8,0,0,0,0-16Z"/>
<path fill="#fff" d="M232,256H216a8,8,0,0,0,0,16h16a8,8,0,0,0,0-16Z"/>
<path fill="#fff" d="M232,304H88a8,8,0,0,0,0,16H232a8,8,0,0,0,0-16Z"/>
<path fill="#fff" d="M88,176h48a8,8,0,0,0,0-16H88a8,8,0,0,0,0,16Z"/>
<path fill="#fff" d="M360,208H280a8,8,0,0,0,0,16h80a8,8,0,0,0,0-16Z"/>
<path fill="#fff" d="M88,272h96a8,8,0,0,0,0-16H88a8,8,0,0,0,0,16Z"/>
<path fill="#fff" d="M232,400H200a8,8,0,0,0,0,16h32a8,8,0,0,0,0-16Z"/>
<path fill="#fff" d="M168,400H88a8,8,0,0,0,0,16h80a8,8,0,0,0,0-16Z"/>
<path fill="#fff" d="M88,368h48a8,8,0,0,0,0-16H88a8,8,0,0,0,0,16Z"/>
<path fill="#fff" d="M88,128h96a8,8,0,0,0,0-16H88a8,8,0,0,0,0,16Z"/>
<path fill="#fff" d="M232,352H168a8,8,0,0,0,0,16h64a8,8,0,0,0,0-16Z"/>
<path fill="#fff" d="M442.092,258.814A8,8,0,0,0,436,256H416V120a8,8,0,0,0-2.343-5.657l-96-96A8,8,0,0,0,312,16H72A40.045,40.045,0,0,0,32,56V456a40.045,40.045,0,0,0,40,40H488a8,8,0,0,0,8-8V325.091a8.006,8.006,0,0,0-1.908-5.186ZM416,272v32H352V272ZM320,43.313,388.687,112H344a24.027,24.027,0,0,1-24-24ZM272,264V480H72a24.028,24.028,0,0,1-24-24V56A24.028,24.028,0,0,1,72,32H304V88a40.045,40.045,0,0,0,40,40h56V256H280A8,8,0,0,0,272,264ZM432,480H336V368h96Zm48,0H448V360a8,8,0,0,0-8-8H328a8,8,0,0,0-8,8V480H288V272h48v40a8,8,0,0,0,8,8h80a8,8,0,0,0,8-8V272h.3L480,328.035Z"/>
</svg>
